<svg width="6" height="6" viewBox="0 0 6 6" fill="none" xmlns="http://www.w3.org/2000/svg">
<path fill-rule="evenodd" clip-rule="evenodd" d="M5.00007 1.68658C5.00007 1.78639 4.91916 1.86731 4.81935 1.86731H0.963926C0.864116 1.86731 0.783203 1.78639 0.783203 1.68658C0.783203 1.58677 0.864116 1.50586 0.963926 1.50586H4.81935C4.91916 1.50586 5.00007 1.58677 5.00007 1.68658Z" fill="black"/>
<path fill-rule="evenodd" clip-rule="evenodd" d="M5.00007 2.89166C5.00007 2.99147 4.91916 3.07238 4.81935 3.07238H0.963926C0.864116 3.07238 0.783203 2.99147 0.783203 2.89166C0.783203 2.79185 0.864116 2.71094 0.963926 2.71094H4.81935C4.91916 2.71094 5.00007 2.79185 5.00007 2.89166Z" fill="black"/>
<path fill-rule="evenodd" clip-rule="evenodd" d="M5.00007 4.09674C5.00007 4.19655 4.91916 4.27746 4.81935 4.27746H0.963926C0.864116 4.27746 0.783203 4.19655 0.783203 4.09674C0.783203 3.99693 0.864116 3.91602 0.963926 3.91602H4.81935C4.91916 3.91602 5.00007 3.99693 5.00007 4.09674Z" fill="black"/>
</svg>
