<svg width="24" height="24" viewBox="0 0 24 24" fill="none" xmlns="http://www.w3.org/2000/svg">
<path fill-rule="evenodd" clip-rule="evenodd" d="M11.0748 7.50792C9.74622 6.72352 8.25 7.79022 8.25 9.21273V14.7864C8.25 16.2089 9.74622 17.2756 11.0748 16.4912L15.795 13.7044C17.0683 12.9526 17.0683 11.0466 15.795 10.2948L11.0748 7.50792ZM9.75 9.21273C9.75 9.01425 9.84615 8.87542 9.95947 8.80455C10.0691 8.73598 10.1919 8.72855 10.3122 8.7996L15.0324 11.5865C15.165 11.6648 15.25 11.8144 15.25 11.9996C15.25 12.1848 15.165 12.3344 15.0324 12.4127L10.3122 15.1996C10.1919 15.2706 10.0691 15.2632 9.95947 15.1946C9.84615 15.1238 9.75 14.9849 9.75 14.7864V9.21273Z" fill="black"/>
<path fill-rule="evenodd" clip-rule="evenodd" d="M12 1.25C6.06294 1.25 1.25 6.06294 1.25 12C1.25 17.9371 6.06294 22.75 12 22.75C17.9371 22.75 22.75 17.9371 22.75 12C22.75 6.06294 17.9371 1.25 12 1.25ZM2.75 12C2.75 6.89137 6.89137 2.75 12 2.75C17.1086 2.75 21.25 6.89137 21.25 12C21.25 17.1086 17.1086 21.25 12 21.25C6.89137 21.25 2.75 17.1086 2.75 12Z" fill="black"/>
</svg>
